<?xml version="1.0" encoding="UTF-8" standalone="no"?>
<!-- Created with Inkscape (http://www.inkscape.org/) -->

<svg
   width="73.75779mm"
   height="14.101053mm"
   viewBox="0 0 73.75779 14.101053"
   version="1.1"
   id="svg1"
   xmlns:inkscape="http://www.inkscape.org/namespaces/inkscape"
   xmlns:sodipodi="http://sodipodi.sourceforge.net/DTD/sodipodi-0.dtd"
   xmlns:xlink="http://www.w3.org/1999/xlink"
   xmlns="http://www.w3.org/2000/svg"
   xmlns:svg="http://www.w3.org/2000/svg">
  <sodipodi:namedview
     id="namedview1"
     pagecolor="#ffffff"
     bordercolor="#000000"
     borderopacity="0.25"
     inkscape:showpageshadow="2"
     inkscape:pageopacity="0.0"
     inkscape:pagecheckerboard="0"
     inkscape:deskcolor="#d1d1d1"
     inkscape:document-units="mm"
     inkscape:zoom="0.71535494"
     inkscape:cx="397.00572"
     inkscape:cy="561.25984"
     inkscape:window-width="1854"
     inkscape:window-height="1011"
     inkscape:window-x="1986"
     inkscape:window-y="32"
     inkscape:window-maximized="1"
     inkscape:current-layer="layer1">
    <inkscape:page
       x="4.4822163e-22"
       y="0"
       width="73.75779"
       height="14.101053"
       id="page2"
       margin="0"
       bleed="0" />
  </sodipodi:namedview>
  <defs
     id="defs1">
    <linearGradient
       inkscape:collect="always"
       xlink:href="#linearGradient1"
       id="linearGradient2"
       x1="124.63325"
       y1="150.89153"
       x2="197.97984"
       y2="152.17178"
       gradientUnits="userSpaceOnUse"
       gradientTransform="translate(-47.698442,-70.926983)" />
    <linearGradient
       id="linearGradient1"
       inkscape:collect="always">
      <stop
         style="stop-color:#ea6394;stop-opacity:1;"
         offset="0.04888062"
         id="stop1" />
      <stop
         style="stop-color:#fff06b;stop-opacity:1;"
         offset="0.5104354"
         id="stop3" />
      <stop
         style="stop-color:#ccfcfc;stop-opacity:1;"
         offset="0.94769448"
         id="stop2" />
    </linearGradient>
  </defs>
  <g
     inkscape:label="Layer 1"
     inkscape:groupmode="layer"
     id="layer1"
     transform="translate(-76.729162,-73.554169)">
    <path
       id="text1-6-20-44-6-8-7"
       style="font-size:12.7px;line-height:1.2;font-family:NotANumber;-inkscape-font-specification:NotANumber;text-align:justify;letter-spacing:-0.859896px;fill:none;fill-opacity:1;stroke:url(#linearGradient2);stroke-width:0.66;stroke-linecap:round;stroke-linejoin:round;stroke-dasharray:none"
       d="m 80.526137,73.884707 c -0.508,0 -0.95255,0.0255 -1.32085,0.0636 -0.8255,0.0889 -1.24437,0.39353 -1.24437,0.88883 0,0.32264 0.19613,0.55003 0.54829,0.70022 0.0538,0.2364 0.2426,0.40695 0.52916,0.52917 0.053,0.23285 0.23792,0.40141 0.51677,0.52348 h -1.40353 v 7.18819 c 0,0.3683 -0.0511,0.58422 -0.16537,0.66042 -0.1143,0.0889 -0.41907,0.12661 -0.92707,0.12661 v 1.70222 c 0.21058,0 0.33314,-0.006 0.52916,-0.007 v 0.53588 c 0.21059,0 0.33315,-0.006 0.52917,-0.007 v 0.53589 c 1.9685,0 3.30185,-0.0382 3.97495,-0.12713 0.8128,-0.1016 1.3338,-0.31752 1.5751,-0.66042 0.1905,-0.2794 0.29197,-0.82535 0.29197,-1.63815 v -1.69808 c 0.0651,0.0561 0.13903,0.1084 0.21756,0.15864 0.1152,0.20285 0.29356,0.37842 0.52917,0.52917 0.29016,0.51094 0.95575,0.86096 2.01279,1.0356 0.5334,0.0889 1.62559,0.1266 3.26389,0.1266 1.6891,0 2.95898,-0.076 3.79718,-0.22841 0.8509,-0.1651 1.43507,-0.43165 1.76527,-0.79995 0.2921,-0.3429 0.43201,-0.85105 0.43201,-1.53685 0,-0.009 -10e-4,-0.0164 -0.002,-0.0253 l 0.56638,1.80455 h 0.72605 l 0.33228,1.05833 h 0.72605 l 0.33228,1.05833 h 4.914953 l 0.71675,-2.27169 0.0496,0.15503 h 0.7214 l 0.33693,1.05833 h 0.72141 l 0.33693,1.05833 h 4.91494 l 1.55598,-4.95525 c 0.11567,0.57631 0.30263,1.04959 0.57877,1.38544 0.12828,0.15678 0.28314,0.29284 0.45734,0.41393 0.0258,0.0356 0.0445,0.082 0.0718,0.11524 0.12828,0.15678 0.28314,0.29283 0.45734,0.41393 0.0258,0.0356 0.0445,0.082 0.0718,0.11524 0.5715,0.6985 1.6,1.04128 3.0732,1.04128 0.9525,0 1.70212,-0.0762 2.23552,-0.24133 0.26183,-0.0823 0.51799,-0.211 0.77101,-0.3638 h 0.52452 v 0.52916 h 4.74958 v -5.6534 l 2.1332,4.58215 h 0.28267 l 0.2465,0.52917 h 0.28267 l 0.24649,0.52916 h 5.99447 l 1.788,-3.84111 c 0.051,0.83089 0.21419,1.45993 0.49713,1.86862 0.12258,0.16636 0.29058,0.30593 0.47904,0.43357 0.0181,0.0295 0.031,0.068 0.0501,0.0956 0.12258,0.16636 0.29058,0.30592 0.47904,0.43357 0.0181,0.0295 0.031,0.068 0.0501,0.0956 0.3556,0.4826 0.9907,0.7997 1.8924,0.9648 0.6985,0.1143 1.94322,0.17776 3.72122,0.17776 2.1717,0 3.60666,-0.10139 4.30516,-0.31729 0.8763,-0.2667 1.42224,-0.85087 1.63814,-1.76527 h -0.7121 c 0.0744,-0.16298 0.13761,-0.33719 0.18294,-0.52916 h -0.71211 c 0.0464,-0.10159 0.0869,-0.20911 0.12196,-0.32195 h 1.23403 c 0.0254,-0.3175 0.0377,-0.64744 0.0377,-1.00304 0,-1.31166 -0.38736,-2.25299 -1.15032,-2.82205 -0.14866,-0.20381 -0.32687,-0.37829 -0.52917,-0.52916 -0.26655,-0.36544 -0.61624,-0.64933 -1.05523,-0.84388 -0.8001,-0.3556 -2.37454,-0.53382 -4.71134,-0.53382 -1.6129,0 -2.75623,0.0637 -3.40393,0.19069 -0.59736,0.1212 -1.0731,0.33851 -1.43815,0.64079 l 0.046,-0.0987 h -0.77566 l 0.24649,-0.52916 h -5.21983 l -0.77928,2.16059 -0.3974,-1.10226 h -0.33848 l -0.19068,-0.52917 h -0.33848 l -0.19069,-0.52916 h -5.07101 -4.74958 v 0.92707 c -0.6985,-0.7493 -1.81628,-1.13068 -3.36568,-1.13068 -0.98193,0 -1.77472,0.16431 -2.38694,0.48473 l 0.0362,-0.11524 h -1.39062 l 0.33228,-1.05833 h -1.39061 l 0.33228,-1.05834 h -5.02915 l -0.59996,2.11667 -0.29404,1.06306 -0.6134,-2.12139 h -0.77567 l -0.28267,-1.05834 h -3.56877 l -0.56534,2.11667 -0.32039,1.06306 -0.633563,-2.12139 h -0.75551 l -0.30282,-1.05834 h -5.01675 l 0.91829,2.92541 c -0.009,-0.006 -0.0189,-0.0121 -0.0284,-0.0181 -0.28774,-0.51156 -0.95553,-0.85748 -2.01797,-1.03301 -0.54611,-0.0889 -1.63828,-0.13953 -3.26388,-0.13953 -1.6891,0 -2.93374,0.076 -3.74654,0.22841 -0.8128,0.1524 -1.37158,0.41947 -1.67638,0.80047 -0.0554,0.0721 -0.10188,0.15632 -0.14521,0.24546 h -0.1292 v -0.52917 h -0.52916 v -0.34726 c 0.40005,-0.0459 0.72548,-0.11888 0.90589,-0.22841 0.2286,-0.1397 0.34313,-0.35592 0.34313,-0.64802 0,-0.32314 -0.19711,-0.55612 -0.55036,-0.71004 -0.0562,-0.23378 -0.24537,-0.40551 -0.52916,-0.52916 -0.0935,-0.38881 -0.50408,-0.63047 -1.2237,-0.70797 -0.3683,-0.0381 -0.81285,-0.0636 -1.32085,-0.0636 z m 44.334243,3.02514 0.0977,0.20928 h -0.0977 z m -34.750333,2.02106 c 0.12692,0 0.21898,0.0207 0.31626,0.0382 0.007,0.0666 0.0181,0.12621 0.0181,0.20722 h 0.41496 c 7.9e-4,0.001 10e-4,0.003 0.002,0.004 h -1.49189 c 0.1328,-0.16172 0.37212,-0.2496 0.74052,-0.2496 z m 53.862863,0.0506 c 0.0396,0 0.0745,0.006 0.11214,0.008 0.003,0.0219 0.008,0.041 0.0103,0.0636 0.0254,0.254 0.0383,0.4576 0.0383,0.6227 h -1.23094 c 0.16764,-0.45878 0.52467,-0.69453 1.07022,-0.69453 z m -23.93445,0.49558 c 0.0236,0 0.0447,0.005 0.0677,0.006 6.9e-4,0.0182 0.005,0.0347 0.005,0.0532 v 1.21957 c 0,0.8509 -0.38138,1.2826 -1.13068,1.2826 -0.0138,0 -0.0257,-0.004 -0.0393,-0.004 -0.052,-0.21674 -0.0832,-0.45895 -0.0832,-0.74104 0,-0.5715 0.12685,-1.01619 0.38085,-1.35909 0.2286,-0.3048 0.49516,-0.45682 0.79996,-0.45682 z m -25.729183,0.22841 0.61723,-0.33409 0.50364,1.51283 c -0.10548,-0.12035 -0.17314,-0.22839 -0.31265,-0.31471 -0.13492,-0.21805 -0.31111,-0.39425 -0.52917,-0.52917 -0.0783,-0.12657 -0.17272,-0.2363 -0.27905,-0.33486 z m -11.01356,0.13147 c 0.0671,0.91743 0.18115,1.89574 0.80473,1.75681 -0.45411,-0.36115 -0.71678,-0.82148 -0.80473,-1.75681 z m 59.483473,2.2813 h 1.14928 c -0.0256,0.0582 -0.0547,0.10376 -0.0868,0.13591 -0.2667,0.3048 -0.58417,0.45682 -0.92707,0.45682 -0.0202,0 -0.039,-0.006 -0.0589,-0.007 -0.0313,-0.17196 -0.062,-0.34551 -0.0765,-0.58601 z m -54.550163,0.0258 h 1.76992 c -0.12332,0.23507 -0.45617,0.3514 -0.99788,0.3514 -0.12028,0 -0.2055,-0.0215 -0.29869,-0.0377 -0.0121,-0.0924 -0.0232,-0.18669 -0.0232,-0.30955 h -0.44855 c -5.4e-4,-0.001 -0.001,-0.003 -0.002,-0.004 z"
       sodipodi:nodetypes="ccsccccscccccccccsccccsccsccccccccccccccccccccscccccccccccccccccccscccccccscccscccccccccccccccsccccccccccccccccccccccsscccccccsccccccccccccccccccccccccccssscsccccccccccccccscccccscccccc"
       inkscape:export-filename="jsWave.png"
       inkscape:export-xdpi="25.59"
       inkscape:export-ydpi="25.59" />
  </g>
</svg>
